<?xml version="1.0" encoding="UTF-8"?>
<svg xmlns="http://www.w3.org/2000/svg" version="1.1" viewBox="0 0 1000 1000">
  <!-- Generator: Adobe Illustrator 29.1.0, SVG Export Plug-In . SVG Version: 2.1.0 Build 142)  -->
  <g id="Background">
    <rect id="BG" x="15" y="15" width="970" height="970" rx="70" ry="70" fill="#f5fff0"/>
  </g>
  <g id="Folder">
    <g>
      <rect x="85" y="152.2" width="660.7" height="779.8" rx="60" ry="60" fill="#ee964b"/>
      <path d="M685.7,162.2c27.6,0,50,22.4,50,50v659.8c0,27.6-22.4,50-50,50H145c-27.6,0-50-22.4-50-50V212.2c0-27.6,22.4-50,50-50h540.7M685.7,142.2H145c-38.7,0-70,31.3-70,70v659.8c0,38.7,31.3,70,70,70h540.7c38.7,0,70-31.3,70-70V212.2c0-38.7-31.3-70-70-70h0Z" fill="#1f271b"/>
    </g>
    <g>
      <rect x="145.6" y="217.1" width="537.3" height="658.5" rx="20" ry="20" fill="#f4d35e"/>
      <path d="M662.9,227.1c5.5,0,10,4.5,10,10v618.5c0,5.5-4.5,10-10,10H165.6c-5.5,0-10-4.5-10-10V237.1c0-5.5,4.5-10,10-10h497.3M662.9,207.1H165.6c-16.6,0-30,13.4-30,30v618.5c0,16.6,13.4,30,30,30h497.3c16.6,0,30-13.4,30-30V237.1c0-16.6-13.4-30-30-30h0Z" fill="#f4d35e"/>
    </g>
    <g>
      <rect x="245.7" y="98" width="323.4" height="114.9" rx="39.5" ry="39.5" fill="#28afb0"/>
      <path d="M529.6,98.5c21.5,0,39,17.5,39,39v35.9c0,21.5-17.5,39-39,39h-244.4c-21.5,0-39-17.5-39-39v-35.9c0-21.5,17.5-39,39-39h244.4M529.6,97.5h-244.4c-22.1,0-40,17.9-40,40v35.9c0,22.1,17.9,40,40,40h244.4c22.1,0,40-17.9,40-40v-35.9c0-22.1-17.9-40-40-40h0Z" fill="#1f271b"/>
    </g>
    <rect x="262" y="166" width="289" height="31" fill="#1c464d"/>
    <path d="M529.6,117.5c11,0,20,9,20,20v35.9c0,11-9,20-20,20h-244.4c-11,0-20-9-20-20v-35.9c0-11,9-20,20-20h244.4M529.6,97.5h-244.4c-22.1,0-40,17.9-40,40v35.9c0,22.1,17.9,40,40,40h244.4c22.1,0,40-17.9,40-40v-35.9c0-22.1-17.9-40-40-40h0Z" fill="#1f271b"/>
    <path d="M350.5,116.8c0-35.2,28.6-63.8,63.8-63.8s63.8,28.6,63.8,63.8" fill="none" stroke="#1f271b" stroke-miterlimit="10" stroke-width="20"/>
    <path d="M360.9,126.9c-.5-3.1-.8-6.3-.8-9.5" fill="#28afb0"/>
    <path d="M360,117.4c0-30.3,24.5-54.8,54.8-54.8s54.8,24.5,54.8,54.8-.4,7.5-1.1,11" fill="#28afb0"/>
    <circle cx="414.8" cy="118.4" r="21.8" fill="#f5fff0" stroke="#1f271b" stroke-miterlimit="10" stroke-width="15"/>
  </g>
  <g id="File">
    <path d="M907.3,891.5h-413.2c-20.5,0-37.1-17.4-37.1-38.8V303.8c0-21.4,16.6-38.8,37.1-38.8l257.9.6c6.4,0,12.6,2.5,17.4,6.9l168.5,154.5c4.5,4.2,7.1,10.2,7.1,16.5l-.6,409.2c0,21.4-16.6,38.8-37.1,38.8Z" fill="#8ec187" stroke="#1f271b" stroke-miterlimit="10" stroke-width="20"/>
    <path d="M769.3,272.4l168.2,154.3c2.6,2.4,1,6.9-2.5,6.9h-147.9c-13.9,0-25.1-11.7-25.1-26.2v-131.5c0-4,4.5-6.1,7.3-3.5Z" fill="#8ec187" stroke="#1f271b" stroke-miterlimit="10" stroke-width="20"/>
    <g id="Branch">
      <line x1="609.5" y1="539.5" x2="609.5" y2="774.5" fill="none" stroke="#1f271b" stroke-miterlimit="10" stroke-width="30"/>
      <path d="M609.5,657h184.4c9.5,0,17.1-9,17.1-20v-97.2" fill="none" stroke="#1f271b" stroke-miterlimit="10" stroke-width="30"/>
      <circle cx="609.8" cy="539.8" r="39.7" fill="#8ec187" stroke="#1f271b" stroke-miterlimit="10" stroke-width="30"/>
      <circle cx="609.8" cy="774.8" r="39.7" fill="#8ec187" stroke="#1f271b" stroke-miterlimit="10" stroke-width="30"/>
      <circle cx="810.8" cy="539.8" r="39.7" fill="#8ec187" stroke="#1f271b" stroke-miterlimit="10" stroke-width="30"/>
    </g>
  </g>
</svg>